<svg width="213" height="49" viewBox="0 0 213 49" fill="none" xmlns="http://www.w3.org/2000/svg">
<g clip-path="url(#clip0_16_728)">
<path d="M1.42285 24.1778C1.42285 37.0157 11.8298 47.4226 24.6678 47.4226C37.5058 47.4226 47.9134 37.0157 47.9134 24.1778C47.9134 11.3399 37.5058 0.932861 24.6678 0.932861C11.8298 0.932861 1.42285 11.3398 1.42285 24.1778Z" fill="#0C0C4F" stroke="#EC796B"/>
<path fill-rule="evenodd" clip-rule="evenodd" d="M14.1487 18.5592L14.7374 16.7404C14.857 16.3705 15.149 16.0826 15.5203 15.9691L17.348 15.4071C17.601 15.3298 17.603 14.9729 17.3521 14.8915L15.5326 14.3028C15.1634 14.1831 14.8755 13.8911 14.7613 13.5199L14.1999 11.6922C14.1227 11.4398 13.7657 11.4371 13.6844 11.6888L13.0956 13.5076C12.976 13.8768 12.684 14.1646 12.3127 14.2789L10.485 14.8402C10.232 14.9182 10.2293 15.2744 10.4809 15.3558L12.3004 15.9445C12.6697 16.0642 12.9575 16.3568 13.0717 16.7281L13.6331 18.5551C13.7103 18.8081 14.0673 18.8108 14.1487 18.5592Z" fill="#FAFAFA"/>
<path fill-rule="evenodd" clip-rule="evenodd" d="M43.0373 17.5006C42.2841 16.658 41.108 16.1836 39.9647 15.989C38.8124 15.8022 37.604 15.8195 36.4665 16.0216C34.1646 16.411 32.0734 17.3641 30.2495 18.54C29.3023 19.117 28.4946 19.7848 27.6577 20.4648C27.2545 20.8087 26.8869 21.1749 26.5041 21.5359L25.458 22.5768C24.3213 23.7649 23.2009 24.8471 22.1169 25.7441C21.0285 26.637 20.0109 27.3151 19.0081 27.7887C18.006 28.2647 16.9336 28.5446 15.5359 28.5894C14.1505 28.6383 12.5114 28.3882 10.7581 27.9755C8.99535 27.5646 7.1443 26.9789 5.07581 26.475C5.79756 28.4773 6.88441 30.2467 8.27982 31.8641C9.6916 33.4535 11.4545 34.9023 13.7191 35.855C15.9511 36.8289 18.7559 37.1785 21.3785 36.6511C24.0081 36.1448 26.3156 34.9279 28.1809 33.5208C30.0509 32.0993 31.5638 30.4799 32.8393 28.7962C33.1913 28.3311 33.3776 28.0708 33.6323 27.7072L34.3366 26.664C34.826 26.0188 35.2716 25.2841 35.7561 24.6448C36.7059 23.3059 37.642 21.9685 38.73 20.7364C39.2776 20.1114 39.8551 19.5137 40.5368 18.9392C40.877 18.6588 41.2441 18.3844 41.6511 18.1372C42.064 17.8706 42.5003 17.6619 43.0373 17.5006Z" fill="#EC796B"/>
<path fill-rule="evenodd" clip-rule="evenodd" d="M43.0373 17.5006C42.228 15.458 40.7231 13.7386 38.7034 12.4699C36.6956 11.2151 33.9074 10.5747 31.1445 11.1206C29.7793 11.3846 28.4569 11.8928 27.2964 12.5697C26.1411 13.2438 25.1059 14.0553 24.2096 14.9259C23.7622 15.3627 23.3561 15.8183 22.9527 16.2765L21.907 17.6097L20.292 19.7558C18.233 22.517 16.0158 25.7529 12.3772 26.7117C8.80519 27.653 7.25594 26.8194 5.07581 26.475C5.47445 27.5042 5.96821 28.5036 6.63765 29.3829C7.29458 30.2799 8.07052 31.1224 9.03523 31.8446C9.52275 32.1914 10.0375 32.5338 10.6092 32.8242C11.1782 33.1046 11.7919 33.3516 12.4469 33.5375C13.7499 33.8947 15.2168 34.0197 16.637 33.8277C18.058 33.6381 19.4162 33.1877 20.6034 32.5896C21.7993 31.9973 22.8412 31.2758 23.7714 30.5144C25.6206 28.9787 27.059 27.2819 28.274 25.5667C28.8851 24.7092 29.4399 23.8355 29.9529 22.9615L30.5568 21.921C30.7414 21.6169 30.9282 21.3109 31.1179 21.0259C31.8829 19.8808 32.6313 18.9627 33.5403 18.2735C34.4366 17.5666 35.6849 17.0443 37.3528 16.9229C39.0138 16.8001 40.9314 17.027 43.0373 17.5006Z" fill="#FAFAFA"/>
<path fill-rule="evenodd" clip-rule="evenodd" d="M34.0511 34.4716C34.0511 35.9717 35.268 37.1886 36.768 37.1886C38.2684 37.1886 39.4835 35.9717 39.4835 34.4716C39.4835 32.9715 38.2684 31.7546 36.768 31.7546C35.268 31.7546 34.0511 32.9715 34.0511 34.4716Z" fill="#EC796B"/>
<path d="M209.252 17.5091V14.7657C209.252 14.6569 209.164 14.5687 209.055 14.5687H193.423C193.315 14.5687 193.227 14.6569 193.227 14.7657V17.5091H199.58V35.2571H202.899V17.5091H209.252Z" fill="white"/>
<path d="M176.889 14.5687C176.78 14.5687 176.692 14.6569 176.692 14.7657V35.06C176.692 35.1687 176.78 35.2571 176.889 35.2571H190.044C190.152 35.2571 190.241 35.1687 190.241 35.06V32.3457H180.012V25.8439H188.463V22.991H180.012V17.4799H189.512V14.7657C189.512 14.6569 189.424 14.5687 189.315 14.5687H176.889Z" fill="white"/>
<path d="M169.261 35.1367L169.333 35.2571H171.883C171.992 35.2571 172.08 35.1687 172.08 35.06V14.7657C172.08 14.6569 171.992 14.5687 171.883 14.5687H168.819V28.8965C168.287 28.0496 167.669 27.1173 166.966 26.0998C166.07 24.7757 165.106 23.4325 164.075 22.0701C163.063 20.6884 162.031 19.3551 160.98 18.0703C159.948 16.765 158.972 15.6235 158.053 14.6463L157.981 14.5687H155.581C155.472 14.5687 155.384 14.6569 155.384 14.7657V35.06C155.384 35.1687 155.472 35.2571 155.581 35.2571H158.645V19.9082C159.064 20.403 159.51 20.9513 159.983 21.5533C160.622 22.3667 161.281 23.2386 161.959 24.1691L161.96 24.1701L161.961 24.1711C162.639 25.0815 163.317 26.0309 163.995 27.0193L163.996 27.0206L163.997 27.022C164.695 28.0108 165.364 28.9898 166.003 29.959L166.004 29.96L166.005 29.9609C166.644 30.91 167.234 31.8298 167.776 32.7201L167.777 32.7216L167.778 32.7234C168.341 33.6155 168.835 34.42 169.261 35.1367Z" fill="white"/>
<path d="M151.375 14.9808L151.45 14.8984C151.565 14.7719 151.476 14.5687 151.305 14.5687H147.67L147.597 14.6542C147.114 15.2137 146.515 15.8712 145.798 16.6272C145.099 17.3645 144.352 18.1408 143.556 18.956C142.761 19.771 141.955 20.5859 141.141 21.4009C140.489 22.0373 139.881 22.6238 139.316 23.1605V14.5687H136.194C136.085 14.5687 135.997 14.6569 135.997 14.7657V35.06C135.997 35.1687 136.085 35.2571 136.194 35.2571H139.316V25.8716C140.001 26.3203 140.702 26.8453 141.417 27.4473L141.419 27.4482L141.42 27.449C142.287 28.1619 143.135 28.9426 143.964 29.7915L143.966 29.7935L143.968 29.7955C144.816 30.6244 145.616 31.5014 146.368 32.4266L146.369 32.4275L146.37 32.4287C147.122 33.3347 147.786 34.2395 148.363 35.1433L148.435 35.2571H151.977C152.129 35.2571 152.224 35.0932 152.148 34.9619L152.106 34.8882C151.574 33.9629 150.907 32.9918 150.105 31.9744C149.324 30.9586 148.484 29.9627 147.586 28.9865C146.687 28.0101 145.769 27.092 144.831 26.2322C143.982 25.4535 143.17 24.7849 142.396 24.2273C143.055 23.5849 143.752 22.8952 144.489 22.1581C145.306 21.3414 146.123 20.5151 146.939 19.6789C147.775 18.8234 148.573 17.9969 149.331 17.1994L149.332 17.1983L149.334 17.1973C150.092 16.3809 150.772 15.642 151.375 14.9808Z" fill="white"/>
<path fill-rule="evenodd" clip-rule="evenodd" d="M117.155 14.4137C117.046 14.4137 116.958 14.5019 116.958 14.6106V35.0724C116.958 35.1814 117.046 35.2695 117.155 35.2695H119.968V27.7463H124.076C124.539 28.2997 124.989 28.8788 125.429 29.4835L125.431 29.4858L125.432 29.488C126.152 30.4309 126.816 31.4144 127.426 32.439L127.427 32.4399L127.427 32.4411C127.98 33.3477 128.462 34.2431 128.874 35.1273L128.94 35.2695H132.268C132.411 35.2695 132.506 35.1225 132.447 34.9927C132.064 34.154 131.65 33.3326 131.189 32.5326C130.563 31.4144 129.876 30.3072 129.129 29.2112C128.702 28.5849 128.265 27.9765 127.82 27.3859C129.061 27.0064 130.044 26.32 130.754 25.3238L130.755 25.323C131.608 24.1174 132.03 22.6994 132.03 21.0799C132.03 19.967 131.837 18.9487 131.445 18.0285C131.052 17.095 130.461 16.3208 129.673 15.7101C128.89 15.096 127.926 14.7053 126.791 14.5301C126.526 14.4813 126.253 14.4521 125.971 14.4421C125.695 14.4232 125.455 14.4135 125.251 14.4135C124.388 14.4135 123.525 14.4134 122.662 14.4134C120.826 14.4132 118.991 14.4131 117.155 14.4137ZM128.964 21.0799C128.964 21.6174 128.875 22.1463 128.695 22.6677C128.519 23.1684 128.239 23.6073 127.851 23.9866C127.483 24.3457 126.998 24.6004 126.384 24.7429C126.189 24.7871 125.98 24.8185 125.754 24.8365L125.754 24.8365L125.754 24.8365C125.532 24.855 125.337 24.864 125.166 24.864H119.968V17.2958H125.166C125.337 17.2958 125.532 17.3048 125.754 17.3232L125.759 17.3237L125.764 17.3239C125.983 17.3326 126.186 17.3632 126.374 17.4144L126.38 17.4161L126.386 17.4175C126.998 17.5505 127.482 17.8043 127.848 18.1712L127.849 18.1722L127.851 18.1731C128.238 18.5518 128.519 18.9952 128.695 19.5056V19.5062L128.695 19.5069C128.875 20.0182 128.964 20.5422 128.964 21.0799Z" fill="white"/>
<path fill-rule="evenodd" clip-rule="evenodd" d="M109.574 32.5257L109.574 32.5266L109.574 32.5275C109.866 33.3649 110.178 34.2217 110.509 35.0977L110.569 35.2571H113.899C114.035 35.2571 114.13 35.1213 114.084 34.9927C113.356 32.9945 112.622 30.9987 111.873 29.0086C111.193 27.181 110.522 25.4502 109.861 23.8163C109.219 22.1824 108.577 20.6259 107.935 19.1469C107.29 17.6437 106.612 16.1555 105.906 14.6805C105.873 14.6121 105.804 14.5687 105.729 14.5687H103.073C102.997 14.5687 102.928 14.6121 102.895 14.6805C102.189 16.1555 101.511 17.6438 100.867 19.1471C100.225 20.6255 99.5735 22.1815 98.9124 23.8151L98.9118 23.8162L98.9114 23.8174C98.2696 25.4508 97.6085 27.1812 96.9284 29.0085C96.1791 30.9987 95.4449 32.9945 94.7176 34.9927C94.6708 35.1213 94.7659 35.2571 94.9027 35.2571H98.09L98.0903 35.2568H98.1525L98.2256 35.1783C98.9945 34.353 99.8539 33.5427 100.804 32.7481L100.805 32.7475L100.806 32.7466C101.76 31.9321 102.755 31.1768 103.79 30.4804L103.792 30.4789L103.794 30.477C104.814 29.7566 105.841 29.11 106.873 28.5372L106.875 28.5365L106.876 28.5359C107.248 28.3242 107.614 28.127 107.974 27.9442L108.671 29.9344L108.672 29.9359C108.982 30.809 109.283 31.6722 109.574 32.5257ZM105.992 22.7122L105.993 22.7139L105.993 22.7156C106.274 23.4255 106.554 24.1474 106.834 24.8811C106.814 24.8904 106.792 24.9 106.77 24.9099C105.784 25.3594 104.723 25.9404 103.589 26.6518C102.503 27.3329 101.425 28.0729 100.357 28.8716L100.809 27.5793C101.408 25.8997 102.006 24.2779 102.605 22.7139C103.155 21.3034 103.729 19.9467 104.325 18.6438C104.903 19.9462 105.459 21.3023 105.992 22.7122Z" fill="white"/>
<path d="M95.5303 17.5091V14.7657C95.5303 14.6569 95.4422 14.5687 95.3332 14.5687H79.7018C79.5931 14.5687 79.5049 14.6569 79.5049 14.7657V17.5091H85.8579V35.06C85.8579 35.1687 85.946 35.2571 86.055 35.2571H88.9803C89.089 35.2571 89.1771 35.1687 89.1771 35.06V17.5091H95.5303Z" fill="white"/>
<path d="M65.162 35.0053L65.1611 35.005C63.9572 34.4918 62.9558 33.7591 62.1618 32.8064L62.1609 32.8051L62.16 32.8042C61.3742 31.8394 60.8637 30.7019 60.6267 29.3977C60.615 29.3325 60.6298 29.2652 60.6681 29.2112C60.7065 29.1571 60.765 29.1208 60.8305 29.1105L63.4784 28.6932C63.6037 28.6734 63.7235 28.7521 63.7549 28.875C64.0767 30.1252 64.7391 31.0956 65.7431 31.799C66.7623 32.4963 67.9641 32.8486 69.3588 32.8486C70.2636 32.8486 71.072 32.7088 71.7878 32.4338C72.5117 32.1495 73.0739 31.7507 73.4841 31.2423C73.8877 30.7424 74.0915 30.1503 74.0915 29.4544C74.0915 29.0224 74.0148 28.6687 73.8726 28.3845C73.8714 28.382 73.8702 28.3794 73.869 28.3768C73.7308 28.074 73.5375 27.8211 73.2885 27.6151C73.2861 27.6131 73.2837 27.6112 73.2815 27.6091C73.0316 27.3859 72.7445 27.1973 72.4194 27.0437C72.0867 26.8866 71.7398 26.757 71.3785 26.6551L71.3751 26.6542L66.0936 25.0855C65.5055 24.9091 64.9371 24.6886 64.3883 24.424L64.3868 24.4232L64.3849 24.4224C63.8277 24.1437 63.3283 23.7994 62.8882 23.3894L62.887 23.3881L62.8861 23.3874C62.4399 22.9615 62.0861 22.4552 61.8243 21.871L61.8237 21.8696C61.5575 21.2658 61.4286 20.5638 61.4286 19.7702C61.4286 18.4979 61.7573 17.3993 62.426 16.4877L62.4263 16.4873C63.0977 15.5753 64.0031 14.8822 65.1333 14.4062C66.2624 13.9309 67.5288 13.7008 68.9289 13.7106C70.3478 13.7204 71.6242 13.9749 72.7532 14.4798C73.8911 14.9746 74.8348 15.6891 75.5798 16.6229C76.3363 17.5587 76.8408 18.6755 77.0971 19.9669C77.1101 20.0319 77.0962 20.0994 77.0588 20.154C77.0213 20.2087 76.9634 20.2459 76.8982 20.2573L74.1785 20.7322C74.1138 20.7434 74.0477 20.7286 73.9943 20.6908C73.9406 20.6531 73.9043 20.5956 73.8935 20.531C73.7561 19.7252 73.4512 19.0417 72.9821 18.4736L72.9794 18.4703C72.5157 17.8883 71.9342 17.4425 71.2308 17.1319L71.2284 17.1308C70.5235 16.8104 69.7471 16.6441 68.8957 16.6348H68.8954C68.0794 16.6256 67.3501 16.7554 66.7034 17.0195C66.055 17.2843 65.549 17.6498 65.1759 18.1118L65.1744 18.1136C64.8082 18.5581 64.6261 19.0686 64.6261 19.6551C64.6261 20.2375 64.7922 20.6867 65.1065 21.0263C65.4455 21.3831 65.8624 21.6711 66.3611 21.889C66.8897 22.106 67.4026 22.2847 67.9004 22.4256L67.9016 22.4259L71.8431 23.5623C72.3025 23.6895 72.8272 23.8646 73.4165 24.0867C74.0332 24.3155 74.628 24.638 75.2003 25.0525C75.7896 25.4693 76.2735 26.0258 76.6536 26.7159C77.0443 27.4151 77.2314 28.2846 77.2314 29.3105C77.2314 30.3416 77.0231 31.2685 76.5999 32.0848C76.1893 32.896 75.6127 33.5774 74.8731 34.1271L74.8713 34.1283C74.1359 34.6651 73.2843 35.0702 72.32 35.3458C71.3552 35.6311 70.3246 35.773 69.2293 35.773C67.7335 35.773 66.3762 35.5188 65.162 35.0053Z" fill="white"/>
</g>
<defs>
<clipPath id="clip0_16_728">
<rect width="211.321" height="48" fill="white" transform="translate(0.770142 0.25)"/>
</clipPath>
</defs>
</svg>
