<svg width="40" height="40" viewBox="0 0 40 40" fill="none" xmlns="http://www.w3.org/2000/svg">
<g clip-path="url(#clip0_1813_17566)">
<path d="M26.4977 13.8722C25.3026 13.3239 24.0211 12.9199 22.6812 12.6885C22.6568 12.684 22.6324 12.6952 22.6198 12.7175C22.455 13.0106 22.2724 13.393 22.1446 13.6936C20.7034 13.4779 19.2697 13.4779 17.8581 13.6936C17.7302 13.3864 17.541 13.0106 17.3754 12.7175C17.3629 12.6959 17.3385 12.6847 17.3141 12.6885C15.9749 12.9191 14.6934 13.3231 13.4976 13.8722C13.4873 13.8767 13.4784 13.8841 13.4725 13.8938C11.0417 17.5253 10.3758 21.0676 10.7025 24.5659C10.704 24.583 10.7136 24.5994 10.7269 24.6098C12.3306 25.7876 13.8841 26.5026 15.4088 26.9765C15.4332 26.984 15.4591 26.975 15.4746 26.9549C15.8353 26.4624 16.1568 25.9431 16.4324 25.397C16.4487 25.365 16.4331 25.327 16.3999 25.3144C15.8899 25.121 15.4044 24.8851 14.9373 24.6173C14.9003 24.5957 14.8974 24.5428 14.9314 24.5176C15.0297 24.4439 15.128 24.3673 15.2218 24.2899C15.2388 24.2758 15.2625 24.2728 15.2824 24.2817C18.351 25.6827 21.6731 25.6827 24.7054 24.2817C24.7254 24.272 24.7491 24.275 24.7668 24.2891C24.8607 24.3665 24.959 24.4439 25.058 24.5176C25.092 24.5428 25.0898 24.5957 25.0528 24.6173C24.5857 24.8903 24.1001 25.121 23.5895 25.3137C23.5562 25.3263 23.5414 25.365 23.5577 25.397C23.8393 25.9423 24.1608 26.4617 24.5148 26.9542C24.5296 26.975 24.5561 26.984 24.5805 26.9765C26.1126 26.5026 27.6661 25.7876 29.2699 24.6098C29.2839 24.5994 29.2928 24.5838 29.2943 24.5667C29.6852 20.5222 28.6394 17.009 26.522 13.8945C26.5169 13.8841 26.508 13.8767 26.4977 13.8722ZM16.8906 22.4358C15.9668 22.4358 15.2056 21.5876 15.2056 20.546C15.2056 19.5044 15.952 18.6562 16.8906 18.6562C17.8366 18.6562 18.5905 19.5118 18.5757 20.546C18.5757 21.5876 17.8292 22.4358 16.8906 22.4358ZM23.1209 22.4358C22.1971 22.4358 21.4359 21.5876 21.4359 20.546C21.4359 19.5044 22.1823 18.6562 23.1209 18.6562C24.0669 18.6562 24.8207 19.5118 24.806 20.546C24.806 21.5876 24.0669 22.4358 23.1209 22.4358Z" fill="#FFF4E9"/>
</g>
<defs>
<clipPath id="clip0_1813_17566">
<rect width="18.75" height="18.75" fill="white" transform="translate(10.625 10.625)"/>
</clipPath>
</defs>
</svg>
