<svg width="55" height="40" viewBox="0 0 55 40" fill="none" xmlns="http://www.w3.org/2000/svg">
<path d="M55 0H0V40H55V0Z" fill="#1A1A1A"/>
<path d="M31.3113 24.6387C29.7803 24.6387 28.9499 25.4819 28.9499 26.9569V32.6789C28.9499 34.154 29.7803 34.9972 31.3113 34.9972H33.3353C34.8663 34.9972 35.6968 34.154 35.6968 32.6789V26.9569C35.6968 25.4832 34.8677 24.6387 33.3353 24.6387H31.3113ZM32.0908 26.8733H32.5566V32.7466H32.0908V26.8733Z" fill="#FFF4E9"/>
<path d="M13.9176 24.6387C12.4031 24.6387 11.5813 25.4936 11.5813 26.9894V34.9972H14.6885V31.8737H15.1492V34.9972H18.2564V26.9894C18.2564 25.495 17.4346 24.6387 15.9201 24.6387H13.9176ZM14.6885 26.9051H15.1492V29.4188H14.6885V26.9051Z" fill="#FFF4E9"/>
<path d="M13.1076 5.16406H4.33234V23.3259H10.5826V16.8229H10.584C10.4404 15.3375 10.2129 13.7105 9.89277 13.1705C9.89277 13.1705 9.71404 12.8328 9.5669 12.6857C9.09606 12.2113 8.45654 11.4572 8.7458 10.5111C8.86566 10.1202 9.12622 9.79154 9.49012 9.59887C9.77578 9.44902 9.97674 9.24323 10.1189 8.96286C10.1605 8.87723 10.21 8.79644 10.2646 8.71978C10.5761 8.27782 11.0721 7.99124 11.6326 7.99124C11.7798 7.99124 11.9233 8.00919 12.059 8.04717C12.3389 8.12521 12.5994 8.12521 12.8822 8.04717C13.0171 8.00919 13.1607 7.99124 13.3071 7.99124C13.867 7.99124 14.3644 8.27782 14.6759 8.71978C14.7297 8.79644 14.7778 8.87723 14.8201 8.96286C14.963 9.24323 15.1632 9.44902 15.4489 9.59887C15.8128 9.79154 16.0734 10.1202 16.1932 10.5111C16.3045 10.8757 16.2844 11.2728 16.1559 11.6319C16.0425 11.9427 15.6535 12.3694 15.3427 12.6995C14.8029 13.0786 14.467 15.1503 14.2854 16.7407C16.6375 16.3927 17.8979 14.9459 17.8979 12.6463V9.34336C17.8979 6.684 16.2147 5.16406 13.1076 5.16406ZM15.4116 10.8074C15.3513 10.6133 15.2249 10.4731 15.0548 10.4117C14.9177 10.3626 14.762 10.3695 14.6177 10.4351C14.6027 10.4421 14.5876 10.4497 14.5732 10.4579C14.5596 10.4648 14.5445 10.4731 14.5309 10.4828C14.5165 10.4911 14.5029 10.5014 14.4878 10.5125C14.4778 10.5173 14.4706 10.5242 14.462 10.5311C14.4498 10.5394 14.4362 10.5519 14.4247 10.5636C14.3845 10.5981 14.3486 10.6382 14.3134 10.681C14.3027 10.6955 14.2926 10.71 14.284 10.7252C14.279 10.73 14.2739 10.7355 14.2718 10.7418C14.261 10.7597 14.251 10.7763 14.2395 10.7949C14.2136 10.8412 14.19 10.8902 14.172 10.9427C14.1024 11.1326 14.0952 11.3336 14.1469 11.509C14.205 11.7016 14.3335 11.8418 14.5036 11.904C14.5273 11.913 14.5524 11.9206 14.5783 11.924C14.5876 11.9275 14.6005 11.9288 14.6099 11.9295C14.6149 11.9309 14.6177 11.9309 14.6228 11.9309C14.6321 11.9337 14.6436 11.9344 14.6536 11.9344C14.6644 11.9357 14.6766 11.9357 14.6881 11.9357C14.7721 11.9357 14.8582 11.9171 14.94 11.8798C15.1403 11.7893 15.3018 11.6057 15.3872 11.3736C15.4561 11.1837 15.4647 10.9828 15.4116 10.8074ZM14.1411 9.81019C14.1411 9.79361 14.1397 9.77566 14.1368 9.76047C14.1368 9.75425 14.1368 9.74734 14.1347 9.74113C14.1333 9.7211 14.1311 9.70246 14.1275 9.68174C14.1246 9.65964 14.1196 9.63547 14.116 9.61407C14.1139 9.60095 14.111 9.58782 14.106 9.5747C14.0952 9.51946 14.0765 9.46421 14.0572 9.41242C14.0486 9.3917 14.0407 9.37444 14.032 9.3551C14.0076 9.30262 13.9804 9.25428 13.9509 9.2087C13.9459 9.20042 13.9409 9.19351 13.9359 9.18661C13.9208 9.16658 13.9065 9.14586 13.8878 9.12722C13.8828 9.11962 13.8777 9.11272 13.8705 9.10581C13.8605 9.09269 13.8497 9.08095 13.8361 9.0699C13.826 9.05954 13.8174 9.05125 13.8088 9.04366C13.7938 9.02985 13.778 9.01673 13.7614 9.00499C13.7543 8.99739 13.7457 8.99187 13.7356 8.98427C13.7349 8.98358 13.7335 8.98082 13.732 8.98082C13.7134 8.96908 13.6962 8.95734 13.6768 8.94629C13.6208 8.91314 13.5605 8.89035 13.5009 8.87654C13.4815 8.87033 13.4614 8.86826 13.4406 8.8648C13.4406 8.8648 13.4392 8.8648 13.4385 8.8648C13.4126 8.86066 13.3875 8.85859 13.3602 8.85859C13.1406 8.85859 12.9318 8.97875 12.7853 9.18661C12.649 9.37789 12.5765 9.62719 12.5765 9.89236C12.5765 10.1569 12.649 10.4075 12.7853 10.5981C12.9318 10.806 13.1406 10.9248 13.3602 10.9248C13.5792 10.9248 13.7887 10.806 13.9359 10.5981C14.0708 10.4075 14.1448 10.1569 14.1448 9.89236C14.1448 9.86474 14.1419 9.83781 14.1411 9.81019Z" fill="#FF9F46"/>
<path d="M28.4489 24.6387H25.4343V34.9972H28.4489V24.6387Z" fill="#FFF4E9"/>
<path d="M18.7592 24.6387V27.2877H20.349V34.9972H23.4138V27.2877H25.0036V24.6387H18.7592Z" fill="#FFF4E9"/>
<path d="M37.0613 5.16406V9.80812H40.2769V23.3259H46.4768V9.80812H49.6938V5.16406H37.0613Z" fill="#FF9F46"/>
<path d="M21.8449 5.16406V23.3259H32.9701V18.7578H28.1453V16.3885H32.6579V11.973H28.1453V9.67967H32.9701V5.16406H21.8449Z" fill="#FF9F46"/>
<path d="M45.5742 24.6394C44.0569 24.6394 43.2343 25.4819 43.2343 26.9569V28.789C43.2343 30.264 44.0576 31.1051 45.5742 31.1051H46.6867V32.5898H46.2252V31.284H43.2343V32.6789C43.2343 34.154 44.0576 34.9965 45.5742 34.9965H47.3535C48.8708 34.9965 49.6934 34.154 49.6934 32.6789V30.7053C49.6934 29.2454 48.8737 28.4112 47.3607 28.3878H46.2288V27.0736H46.6903V28.0811H49.5915V26.9562C49.5915 25.4825 48.7682 24.6387 47.2516 24.6387H45.5742V24.6394Z" fill="#FFF4E9"/>
<path d="M36.1274 24.6387V34.9972H39.2037V27.0094H39.6545V34.9972H42.7308V27.0225C42.7308 25.5067 41.9025 24.6387 40.3722 24.6387H38.4852C38.4199 24.6387 38.3582 24.6428 38.295 24.6463V24.6387H36.1274Z" fill="#FFF4E9"/>
<path d="M4.47443 24.6387V34.9972H7.55072V27.0094H8.00147V34.9972H11.0778V27.0225C11.0778 25.5067 10.2495 24.6387 8.71923 24.6387H6.83369C6.76837 24.6387 6.70664 24.6428 6.64347 24.6463V24.6387H4.47443Z" fill="#FFF4E9"/>
<path d="M10.8243 11.3317C10.8207 11.3724 10.8142 11.4111 10.8056 11.4505C10.8006 11.4698 10.797 11.4898 10.7912 11.5085C10.7848 11.5278 10.7783 11.5444 10.7711 11.5623C10.769 11.5706 10.7647 11.5789 10.7611 11.5886C10.7539 11.6058 10.7438 11.6252 10.7338 11.6431C10.7252 11.6597 10.7144 11.6763 10.7044 11.6915C10.6994 11.6991 10.6943 11.7046 10.6907 11.7122C10.68 11.726 10.6678 11.7405 10.6548 11.7536C10.6548 11.7536 10.6548 11.7536 10.6548 11.755C10.6412 11.7688 10.6276 11.7847 10.6132 11.7964C10.6032 11.8054 10.5924 11.8144 10.5817 11.8227C10.5379 11.8565 10.4891 11.8841 10.4352 11.9035C10.3764 11.9249 10.3139 11.9352 10.2501 11.9352C10.1661 11.9352 10.0806 11.9166 9.9981 11.8793C9.79785 11.7888 9.63636 11.6051 9.55238 11.3731C9.48348 11.1832 9.47486 10.9823 9.52869 10.8068C9.58683 10.6128 9.71387 10.4726 9.88469 10.4112C10.0218 10.3621 10.1761 10.369 10.3218 10.4346C10.4187 10.4781 10.507 10.5451 10.5817 10.6287C10.6606 10.7164 10.7245 10.8227 10.7676 10.9422C10.769 10.947 10.7697 10.9512 10.7711 10.956C10.8142 11.0796 10.8329 11.2081 10.8243 11.3317Z" fill="#FF9F46"/>
<path d="M12.3614 9.89291C12.3614 10.1574 12.2889 10.4081 12.1539 10.5987C12.0068 10.8065 11.7986 10.9253 11.5783 10.9253C11.561 10.9253 11.5438 10.9246 11.5266 10.9225C11.3256 10.906 11.1376 10.79 11.0019 10.5987C10.8684 10.4081 10.7945 10.1574 10.7945 9.89291C10.7945 9.64223 10.8605 9.40606 10.9804 9.21961C10.9876 9.20856 10.9948 9.19751 11.0019 9.18715C11.1491 8.97929 11.3586 8.85913 11.5783 8.85913C11.7986 8.85913 12.0068 8.97929 12.1539 9.18715C12.2889 9.37844 12.3614 9.62773 12.3614 9.89291Z" fill="#FF9F46"/>
<path d="M14.1443 9.89291C14.1443 10.1574 14.0703 10.4081 13.9354 10.5987C13.7883 10.8065 13.5787 10.9253 13.3598 10.9253C13.1401 10.9253 12.9313 10.8065 12.7849 10.5987C12.6485 10.4081 12.576 10.1574 12.576 9.89291C12.576 9.62773 12.6485 9.37844 12.7849 9.18715C12.9313 8.97929 13.1401 8.85913 13.3598 8.85913C13.387 8.85913 13.4122 8.8612 13.438 8.86535C13.4387 8.86535 13.4402 8.86535 13.4402 8.86535C13.461 8.8688 13.4811 8.87087 13.5004 8.87709C13.56 8.8909 13.6203 8.91369 13.6763 8.94683C13.6957 8.95788 13.7129 8.96962 13.7316 8.98136C13.733 8.98136 13.7344 8.98412 13.7352 8.98481C13.7452 8.99241 13.7538 8.99793 13.761 9.00553C13.7775 9.01727 13.7933 9.03039 13.8084 9.0442C13.817 9.0518 13.8256 9.06009 13.8356 9.07044C13.8493 9.08149 13.86 9.09323 13.8701 9.10635C13.8773 9.11326 13.8823 9.12016 13.8873 9.12776C13.906 9.14641 13.9203 9.16712 13.9354 9.18715C13.9404 9.19406 13.9455 9.20096 13.9505 9.20925C13.9799 9.25483 14.0072 9.30316 14.0316 9.35565C14.0402 9.37498 14.0481 9.39225 14.0567 9.41296C14.0761 9.46476 14.0948 9.52 14.1055 9.57525C14.1105 9.58837 14.1134 9.60149 14.1156 9.61461C14.1192 9.63602 14.1242 9.66019 14.127 9.68228C14.1306 9.703 14.1328 9.72165 14.1342 9.74167C14.1364 9.74789 14.1364 9.75479 14.1364 9.76101C14.1392 9.7762 14.1407 9.79416 14.1407 9.81073C14.1414 9.83835 14.1443 9.86528 14.1443 9.89291Z" fill="#FF9F46"/>
<path d="M14.4691 13.1773C14.4691 13.3996 14.3973 13.5695 14.2544 13.6835C14.2099 13.7194 14.159 13.7477 14.1051 13.7705C14.0865 13.7774 14.0693 13.7843 14.0492 13.7891C14.0212 13.8002 13.991 13.8071 13.9595 13.8133C13.9422 13.8181 13.9221 13.8202 13.9027 13.8229C13.8949 13.825 13.8877 13.8264 13.8791 13.8264C13.8518 13.8285 13.8245 13.8319 13.7965 13.8333C13.7664 13.8347 13.7355 13.8354 13.7047 13.8354C13.648 13.8354 13.5876 13.8333 13.5281 13.8285C13.4828 13.825 13.4355 13.8202 13.391 13.814C13.3443 13.8084 13.2984 13.8015 13.2532 13.7939C13.1613 13.7808 13.0702 13.7643 12.9797 13.7477C12.7859 13.7131 12.6007 13.68 12.4687 13.68C12.3179 13.68 12.122 13.7145 11.9131 13.7525C11.6734 13.7939 11.4315 13.8381 11.2126 13.8381C11.1746 13.8381 11.1365 13.8354 11.1006 13.8333C11.0992 13.8333 11.0978 13.8333 11.0978 13.8333C11.0612 13.8299 11.0253 13.825 10.9908 13.8188C10.9313 13.8084 10.8731 13.7919 10.82 13.7677C10.8042 13.7608 10.787 13.7539 10.7719 13.7456C10.741 13.7297 10.7102 13.7097 10.6844 13.6869C10.5408 13.573 10.4697 13.4017 10.4697 13.1773C10.4697 13.0778 10.4791 12.977 10.4977 12.8734C10.5042 12.8486 10.5092 12.8223 10.5135 12.7961C10.5235 12.7533 10.535 12.7084 10.5487 12.6656C10.5544 12.6476 10.5594 12.631 10.5659 12.6131C10.5709 12.5951 10.5767 12.5779 10.5824 12.5599C10.5889 12.5426 10.5953 12.5247 10.6025 12.506C10.6154 12.4743 10.6283 12.4411 10.6434 12.4073C10.6635 12.3638 10.6815 12.321 10.703 12.2795C10.7238 12.2374 10.7475 12.1946 10.7719 12.1532C10.792 12.12 10.8114 12.0869 10.8322 12.0537C10.8487 12.0289 10.8674 12.0026 10.8846 11.9764C10.9112 11.937 10.9399 11.8977 10.9693 11.8611C10.9944 11.8293 11.0188 11.7989 11.0447 11.7685C11.1932 11.5959 11.3555 11.4522 11.5277 11.339C11.8206 11.1484 12.1421 11.0469 12.4687 11.0469C12.9883 11.0469 13.4951 11.3024 13.8949 11.7685C13.9788 11.8645 14.0556 11.9695 14.1209 12.0758C14.1382 12.1007 14.1547 12.1283 14.169 12.1566C14.1891 12.1877 14.2078 12.2201 14.2236 12.2533C14.248 12.303 14.2731 12.3541 14.2954 12.4038C14.3212 12.4612 14.342 12.5178 14.3621 12.5737C14.3714 12.6034 14.38 12.631 14.3879 12.6593C14.3973 12.687 14.4052 12.7153 14.4124 12.745C14.4411 12.8568 14.4583 12.968 14.464 13.0764C14.4669 13.0778 14.464 13.0785 14.464 13.0785C14.4683 13.1124 14.4691 13.1455 14.4691 13.1773Z" fill="#FF9F46"/>
<path d="M15.386 11.3731C15.3006 11.6051 15.1391 11.7888 14.9388 11.8793C14.857 11.9166 14.7708 11.9352 14.6869 11.9352C14.6754 11.9352 14.6632 11.9352 14.6524 11.9339C14.6424 11.9339 14.6309 11.9332 14.6215 11.9304C14.6165 11.9304 14.6137 11.9304 14.6086 11.929C14.5993 11.9283 14.5864 11.9269 14.5771 11.9235C14.5512 11.92 14.5261 11.9124 14.5024 11.9035C14.3323 11.8413 14.2038 11.7011 14.1457 11.5085C14.094 11.3331 14.1012 11.1321 14.1708 10.9422C14.1887 10.8897 14.2124 10.8407 14.2383 10.7944C14.2497 10.7758 14.2598 10.7592 14.2706 10.7412C14.2727 10.735 14.2777 10.7295 14.2828 10.7247C14.2914 10.7095 14.3014 10.695 14.3122 10.6805C14.3474 10.6377 14.3833 10.5976 14.4234 10.5631C14.4349 10.5513 14.4486 10.5389 14.4608 10.5306C14.4694 10.5237 14.4766 10.5168 14.4866 10.512C14.5017 10.5009 14.5153 10.4906 14.5297 10.4823C14.5433 10.4726 14.5584 10.4643 14.572 10.4574C14.5864 10.4491 14.6014 10.4415 14.6165 10.4346C14.7608 10.369 14.9165 10.3621 15.0536 10.4112C15.2237 10.4726 15.3501 10.6128 15.4104 10.8068C15.4635 10.9823 15.4549 11.1832 15.386 11.3731Z" fill="#FF9F46"/>
</svg>
