<svg width="40" height="40" viewBox="0 0 40 40" fill="none" xmlns="http://www.w3.org/2000/svg">
<g clip-path="url(#clip0_1814_22115)">
<path fill-rule="evenodd" clip-rule="evenodd" d="M30 20C30 25.5228 25.5228 30 20 30C14.4772 30 10 25.5228 10 20C10 14.4772 14.4772 10 20 10C25.5228 10 30 14.4772 30 20ZM20.3582 17.3824C19.3856 17.7869 17.4417 18.6242 14.5265 19.8943C14.0531 20.0826 13.8051 20.2668 13.7825 20.4468C13.7444 20.7512 14.1255 20.871 14.6445 21.0342C14.715 21.0564 14.7882 21.0794 14.8632 21.1037C15.3738 21.2697 16.0606 21.4639 16.4176 21.4716C16.7415 21.4786 17.103 21.3451 17.5021 21.071C20.2259 19.2324 21.6319 18.3031 21.7202 18.283C21.7824 18.2689 21.8687 18.2511 21.9272 18.3031C21.9857 18.3551 21.9799 18.4535 21.9737 18.4799C21.936 18.6409 20.44 20.0317 19.6658 20.7514C19.4245 20.9758 19.2533 21.1349 19.2183 21.1713C19.1399 21.2527 19.06 21.3297 18.9832 21.4037C18.5089 21.861 18.1532 22.2039 19.0029 22.7639C19.4113 23.033 19.738 23.2555 20.064 23.4775C20.42 23.72 20.7751 23.9618 21.2346 24.263C21.3516 24.3397 21.4634 24.4194 21.5723 24.497C21.9866 24.7924 22.3588 25.0578 22.8187 25.0154C23.0859 24.9908 23.3619 24.7396 23.5021 23.9902C23.8334 22.2192 24.4846 18.382 24.6351 16.8007C24.6483 16.6622 24.6317 16.4849 24.6184 16.4071C24.605 16.3292 24.5772 16.2183 24.476 16.1362C24.3562 16.039 24.1713 16.0185 24.0885 16.02C23.7124 16.0266 23.1354 16.2273 20.3582 17.3824Z" fill="#FF9F46"/>
</g>
<defs>
<clipPath id="clip0_1814_22115">
<rect width="20" height="20" fill="white" transform="translate(10 10)"/>
</clipPath>
</defs>
</svg>
